<?xml version="1.0" standalone="no"?>
<svg xmlns="http://www.w3.org/2000/svg" viewBox="0 0 55.656 36" width="55.656" height="36"><g fill="#000000" color="#000000" transform="translate(0 3.9999999999999982) scale(0.2800001)"><svg width="100.0" height="100.0" x="0.0" y="0.0" viewBox="0 0 100 100"><g><path fill-rule="evenodd" clip-rule="evenodd" d="M50,27.28c-12.528,0-22.72,10.192-22.72,22.72   c0,12.528,10.191,22.721,22.72,22.721S72.72,62.528,72.72,50C72.72,37.472,62.528,27.28,50,27.28z M59.062,41.75H46.507v7.17   h10.865v2.731H46.507v10.518h-3.063V39.018h15.618V41.75z"></path><path fill-rule="evenodd" clip-rule="evenodd" d="M50,5C25.147,5,5,25.146,5,50c0,24.853,20.147,45,45,45s45-20.147,45-45   C95,25.146,74.853,5,50,5z M50,75.378c-13.993,0-25.377-11.384-25.377-25.378c0-13.993,11.384-25.378,25.377-25.378   S75.377,36.007,75.377,50C75.377,63.994,63.993,75.378,50,75.378z"></path></g></svg></g><path fill="#000000" fill-rule="nonzero" d="M4.15 20.64L0 20.64L0 0.02L8.26 0.02L8.26 4.03L4.15 4.03L4.15 7.32L8.04 7.32L8.04 11.28L4.15 11.28L4.15 20.64ZM17.11 20.64L11.47 20.64L8.93 0L12.86 0L14.38 14.04L15.72 0L19.66 0L17.11 20.64Z" transform="translate(36, 7.68)"></path></svg>